<?xml version="1.0" encoding="UTF-8" standalone="no"?>
<!DOCTYPE svg PUBLIC "-//W3C//DTD SVG 1.1//EN"
 "http://www.w3.org/Graphics/SVG/1.1/DTD/svg11.dtd">
<!-- Generated by graphviz version 3.0.0 (20220226.1711)
 -->
<!-- Pages: 1 -->
<svg width="108pt" height="629pt"
 viewBox="0.00 0.00 107.75 629.00" xmlns="http://www.w3.org/2000/svg" xmlns:xlink="http://www.w3.org/1999/xlink">
<g id="graph0" class="graph" transform="scale(1 1) rotate(0) translate(4 625)">
<polygon fill="white" stroke="transparent" points="-4,4 -4,-625 103.75,-625 103.75,4 -4,4"/>
<!-- node1 -->
<g id="node1" class="node">
<title>node1</title>
<ellipse fill="none" stroke="black" cx="35.75" cy="-603" rx="32.49" ry="18"/>
<text text-anchor="middle" x="35.75" y="-599.3" font-family="Times,serif" font-size="14.00">node1</text>
</g>
<!-- node2 -->
<g id="node2" class="node">
<title>node2</title>
<ellipse fill="none" stroke="black" cx="35.75" cy="-501" rx="32.49" ry="18"/>
<text text-anchor="middle" x="35.75" y="-497.3" font-family="Times,serif" font-size="14.00">node2</text>
</g>
<!-- node1&#45;&gt;node2 -->
<g id="edge1" class="edge">
<title>node1&#45;&gt;node2</title>
<path fill="none" stroke="red" stroke-width="2" d="M35.75,-584.58C35.75,-569.38 35.75,-547.07 35.75,-529.46"/>
<polygon fill="red" stroke="red" stroke-width="2" points="39.25,-529.22 35.75,-519.22 32.25,-529.22 39.25,-529.22"/>
<text text-anchor="middle" x="59.25" y="-555.8" font-family="Times,serif" font-size="14.00">OH_line</text>
<text text-anchor="middle" x="59.25" y="-540.8" font-family="Times,serif" font-size="14.00">2000</text>
</g>
<!-- node3 -->
<g id="node3" class="node">
<title>node3</title>
<ellipse fill="none" stroke="black" cx="35.75" cy="-399" rx="32.49" ry="18"/>
<text text-anchor="middle" x="35.75" y="-395.3" font-family="Times,serif" font-size="14.00">node3</text>
</g>
<!-- node2&#45;&gt;node3 -->
<g id="edge2" class="edge">
<title>node2&#45;&gt;node3</title>
<path fill="none" stroke="red" stroke-width="2" d="M35.75,-482.58C35.75,-467.38 35.75,-445.07 35.75,-427.46"/>
<polygon fill="red" stroke="red" stroke-width="2" points="39.25,-427.22 35.75,-417.22 32.25,-427.22 39.25,-427.22"/>
<text text-anchor="middle" x="67.75" y="-453.8" font-family="Times,serif" font-size="14.00">transformer</text>
<text text-anchor="middle" x="67.75" y="-438.8" font-family="Times,serif" font-size="14.00">None</text>
</g>
<!-- node4 -->
<g id="node4" class="node">
<title>node4</title>
<polygon fill="none" stroke="black" points="62.75,-315 8.75,-315 8.75,-279 62.75,-279 62.75,-315"/>
<text text-anchor="middle" x="35.75" y="-293.3" font-family="Times,serif" font-size="14.00">node4</text>
</g>
<!-- node3&#45;&gt;node4 -->
<g id="edge3" class="edge">
<title>node3&#45;&gt;node4</title>
<path fill="none" stroke="black" stroke-width="2" d="M35.75,-380.58C35.75,-365.38 35.75,-343.07 35.75,-325.46"/>
<polygon fill="black" stroke="black" stroke-width="2" points="39.25,-325.22 35.75,-315.22 32.25,-325.22 39.25,-325.22"/>
<text text-anchor="middle" x="59.25" y="-351.8" font-family="Times,serif" font-size="14.00">OH_line</text>
<text text-anchor="middle" x="59.25" y="-336.8" font-family="Times,serif" font-size="14.00">2500</text>
</g>
<!-- tn_A1 -->
<g id="node5" class="node">
<title>tn_A1</title>
<ellipse fill="none" stroke="black" cx="35.75" cy="-195" rx="32.49" ry="18"/>
<text text-anchor="middle" x="35.75" y="-191.3" font-family="Times,serif" font-size="14.00">tn_A1</text>
</g>
<!-- node4&#45;&gt;tn_A1 -->
<g id="edge4" class="edge">
<title>node4&#45;&gt;tn_A1</title>
<path fill="none" stroke="red" stroke-width="2" d="M35.75,-278.58C35.75,-263.38 35.75,-241.07 35.75,-223.46"/>
<polygon fill="red" stroke="red" stroke-width="2" points="39.25,-223.22 35.75,-213.22 32.25,-223.22 39.25,-223.22"/>
<text text-anchor="middle" x="67.75" y="-249.8" font-family="Times,serif" font-size="14.00">transformer</text>
<text text-anchor="middle" x="67.75" y="-234.8" font-family="Times,serif" font-size="14.00">None</text>
</g>
<!-- tm_A1 -->
<g id="node6" class="node">
<title>tm_A1</title>
<ellipse fill="none" stroke="black" cx="35.75" cy="-18" rx="36" ry="18"/>
<text text-anchor="middle" x="35.75" y="-14.3" font-family="Times,serif" font-size="14.00">tm_A1</text>
</g>
<!-- tn_A1&#45;&gt;tm_A1 -->
<g id="edge5" class="edge">
<title>tn_A1&#45;&gt;tm_A1</title>
<path fill="none" stroke="green" d="M35.75,-176.9C35.75,-146.58 35.75,-83.16 35.75,-46.59"/>
<polygon fill="green" stroke="green" points="39.25,-46.17 35.75,-36.17 32.25,-46.17 39.25,-46.17"/>
<text text-anchor="middle" x="67.75" y="-147.8" font-family="Times,serif" font-size="14.00">triplex_line</text>
<text text-anchor="middle" x="67.75" y="-132.8" font-family="Times,serif" font-size="14.00">triplex_line</text>
<text text-anchor="middle" x="67.75" y="-117.8" font-family="Times,serif" font-size="14.00">triplex_line</text>
<text text-anchor="middle" x="67.75" y="-102.8" font-family="Times,serif" font-size="14.00">triplex_line</text>
<text text-anchor="middle" x="67.75" y="-87.8" font-family="Times,serif" font-size="14.00">triplex_line</text>
<text text-anchor="middle" x="67.75" y="-72.8" font-family="Times,serif" font-size="14.00">transformer</text>
<text text-anchor="middle" x="67.75" y="-57.8" font-family="Times,serif" font-size="14.00">None</text>
</g>
</g>
</svg>
